<svg width="29" height="29" viewBox="0 0 29 29" fill="none" xmlns="http://www.w3.org/2000/svg">
<path d="M10.9672 24.5235V20.8457C10.9672 19.9138 11.725 19.1566 12.6637 19.1508H16.1104C17.0533 19.1508 17.8176 19.9096 17.8176 20.8457V24.5129C17.8176 25.3212 18.4745 25.9781 19.2887 25.984H21.6402C22.7384 25.9868 23.7926 25.5557 24.5702 24.7857C25.3478 24.0157 25.7848 22.9701 25.7848 21.8798V11.4327C25.7848 10.552 25.3916 9.71651 24.7111 9.15144L16.7224 2.80858C15.326 1.69915 13.3316 1.73499 11.9765 2.89387L4.15964 9.15144C3.44699 9.69986 3.02105 10.5378 3 11.4327V21.8691C3 24.1417 4.85562 25.984 7.14465 25.984H9.44245C9.83445 25.9868 10.2114 25.8342 10.4896 25.56C10.7678 25.2858 10.9242 24.9127 10.9242 24.5235H10.9672Z" fill="#FACD66"/>
</svg>
