<svg width="23" height="24" viewBox="0 0 23 24" fill="none" xmlns="http://www.w3.org/2000/svg">
<path d="M3.7471 17.2368C3.56502 17.2368 3.38294 17.1697 3.23919 17.026C1.92627 15.7035 1.19794 13.9593 1.19794 12.1097C1.19794 8.2668 4.31252 5.14264 8.14585 5.14264L13.9629 5.1618L12.9184 4.16514C12.6309 3.88722 12.6213 3.4368 12.8992 3.1493C13.1771 2.8618 13.6275 2.85222 13.915 3.13014L16.2534 5.37264C16.4642 5.57389 16.5313 5.89014 16.4259 6.15847C16.3204 6.4268 16.0521 6.60889 15.755 6.60889L8.14585 6.58972C5.10794 6.58972 2.63544 9.0718 2.63544 12.1193C2.63544 13.5856 3.21044 14.9751 4.25502 16.0197C4.53294 16.2976 4.53294 16.7576 4.25502 17.0356C4.11127 17.1697 3.92919 17.2368 3.7471 17.2368Z" fill="white"/>
<path d="M9.58333 21.6164C9.40125 21.6164 9.22875 21.5493 9.085 21.4152L6.74666 19.1727C6.53583 18.9714 6.46875 18.6552 6.57416 18.3868C6.68916 18.1185 6.9575 17.9747 7.245 17.9364L14.8637 17.9556C17.9017 17.9556 20.3742 15.4735 20.3742 12.426C20.3742 10.9597 19.7992 9.57015 18.7546 8.52557C18.4767 8.24765 18.4767 7.78765 18.7546 7.50974C19.0325 7.23182 19.4925 7.23182 19.7704 7.50974C21.0833 8.83224 21.8117 10.5764 21.8117 12.426C21.8117 16.2689 18.6971 19.3931 14.8637 19.3931L9.04666 19.3739L10.0912 20.3706C10.3787 20.6485 10.3883 21.0989 10.1104 21.3864C9.95708 21.5397 9.775 21.6164 9.58333 21.6164Z" fill="white"/>
<path d="M11.7396 15.5502C11.3466 15.5502 11.0208 15.2243 11.0208 14.8314V11.5827L10.8387 11.7839C10.5704 12.081 10.12 12.1002 9.8229 11.8414C9.52581 11.5827 9.50665 11.1227 9.7654 10.8256L11.2029 9.22515C11.4041 9.00474 11.7204 8.92807 11.9983 9.03349C12.2762 9.14849 12.4583 9.40724 12.4583 9.71391V14.841C12.4583 15.2339 12.1325 15.5502 11.7396 15.5502Z" fill="white"/>
</svg>
