<svg width="23" height="24" viewBox="0 0 23 24" fill="none" xmlns="http://www.w3.org/2000/svg">
<path d="M20.8437 18.0035C20.8437 17.9843 20.8341 17.9651 20.8341 17.946C20.8246 17.8693 20.815 17.7926 20.7862 17.7256C20.7479 17.6393 20.7 17.5722 20.6425 17.5051C20.6425 17.5051 20.6425 17.4956 20.6329 17.4956C20.5658 17.4285 20.4891 17.3806 20.4029 17.3422C20.3166 17.3039 20.2208 17.2847 20.125 17.2847L15.6496 17.3039C15.6496 17.3039 15.6496 17.3039 15.64 17.3039C15.065 17.3039 14.5091 17.0356 14.1641 16.5756L12.995 15.071C12.7554 14.7547 12.305 14.6972 11.9887 14.9464C11.6725 15.1956 11.615 15.6364 11.8641 15.9526L13.0333 17.4572C13.6562 18.2622 14.6337 18.7414 15.6496 18.7414H15.6591L18.3904 18.7318L17.71 19.4122C17.4321 19.6901 17.4321 20.1501 17.71 20.4281C17.8537 20.5718 18.0358 20.6389 18.2179 20.6389C18.4 20.6389 18.5821 20.5718 18.7258 20.4281L20.6425 18.5114C20.7096 18.4443 20.7575 18.3676 20.7958 18.2814C20.8246 18.1856 20.8437 18.0897 20.8437 18.0035Z" fill="white"/>
<path d="M8.06917 7.18392C7.44625 6.32142 6.44958 5.81351 5.38583 5.81351C5.37625 5.81351 5.37625 5.81351 5.36667 5.81351L2.875 5.82309C2.48208 5.82309 2.15625 6.14892 2.15625 6.54184C2.15625 6.93476 2.48208 7.26059 2.875 7.26059L5.37625 7.25101H5.38583C5.98958 7.25101 6.555 7.53851 6.9 8.02726L7.935 9.46476C8.07875 9.65642 8.29917 9.76184 8.51958 9.76184C8.66333 9.76184 8.81667 9.71392 8.94125 9.62767C9.26708 9.38809 9.33417 8.93767 9.10417 8.62142L8.06917 7.18392Z" fill="white"/>
<path d="M20.8342 6.5993C20.8342 6.58014 20.8437 6.56097 20.8437 6.55139C20.8437 6.45555 20.8246 6.35972 20.7863 6.27347C20.7479 6.18722 20.7 6.11055 20.6329 6.04347L18.7163 4.1268C18.4383 3.84889 17.9783 3.84889 17.7004 4.1268C17.4225 4.40472 17.4225 4.86472 17.7004 5.14264L18.3808 5.82305L15.7646 5.81347C15.755 5.81347 15.755 5.81347 15.7454 5.81347C14.6433 5.81347 13.6083 6.35972 12.995 7.2893L6.87125 16.4701C6.52625 16.9876 5.94167 17.3039 5.31875 17.3039H5.30917L2.875 17.2847C2.48208 17.2847 2.15625 17.601 2.15625 18.0035C2.15625 18.3964 2.4725 18.7222 2.875 18.7222L5.31875 18.7318C5.32833 18.7318 5.32833 18.7318 5.33792 18.7318C6.44958 18.7318 7.475 18.1856 8.08833 17.256L14.2121 8.07514C14.5571 7.55764 15.1417 7.24139 15.7646 7.24139H15.7742L20.125 7.26055C20.2208 7.26055 20.3071 7.24139 20.4029 7.20305C20.4892 7.16472 20.5658 7.1168 20.6329 7.04972C20.6329 7.04972 20.6329 7.04014 20.6425 7.04014C20.7 6.97305 20.7575 6.90597 20.7863 6.81972C20.815 6.75264 20.8246 6.67597 20.8342 6.5993Z" fill="white"/>
</svg>
